<svg xmlns="http://www.w3.org/2000/svg" xmlns:xlink="http://www.w3.org/1999/xlink" width="2000" zoomAndPan="magnify" viewBox="0 0 1500 1499.999933" height="2000" preserveAspectRatio="xMidYMid meet" version="1.0"><defs><clipPath id="5e64741cc1"><path d="M 750 0 C 335.785156 0 0 335.785156 0 750 C 0 1164.214844 335.785156 1500 750 1500 C 1164.214844 1500 1500 1164.214844 1500 750 C 1500 335.785156 1164.214844 0 750 0 Z M 750 0 " clip-rule="nonzero"/></clipPath><clipPath id="3e1ed0ef7b"><path d="M 0 0 L 1500 0 L 1500 1500 L 0 1500 Z M 0 0 " clip-rule="nonzero"/></clipPath><clipPath id="fd51f04b03"><path d="M 750 0 C 335.785156 0 0 335.785156 0 750 C 0 1164.214844 335.785156 1500 750 1500 C 1164.214844 1500 1500 1164.214844 1500 750 C 1500 335.785156 1164.214844 0 750 0 Z M 750 0 " clip-rule="nonzero"/></clipPath><clipPath id="ec120c1451"><rect x="0" width="1500" y="0" height="1500"/></clipPath><clipPath id="cb76652503"><path d="M 283.285156 239.824219 L 1217 239.824219 L 1217 1205.824219 L 283.285156 1205.824219 Z M 283.285156 239.824219 " clip-rule="nonzero"/></clipPath><clipPath id="fd9964a5d1"><path d="M 0.285156 0.824219 L 933.707031 0.824219 L 933.707031 966.824219 L 0.285156 966.824219 Z M 0.285156 0.824219 " clip-rule="nonzero"/></clipPath><clipPath id="4ced139be1"><rect x="0" width="934" y="0" height="967"/></clipPath></defs><rect x="-150" width="1800" fill="#ffffff" y="-149.999993" height="1799.99992" fill-opacity="1"/><rect x="-150" width="1800" fill="#ffffff" y="-149.999993" height="1799.99992" fill-opacity="1"/><g clip-path="url(#5e64741cc1)"><g transform="matrix(1, 0, 0, 1, 0, 0.000000000000112861)"><g clip-path="url(#ec120c1451)"><g clip-path="url(#3e1ed0ef7b)"><g clip-path="url(#fd51f04b03)"><rect x="-330" width="2160" fill="#ffffff" height="2159.999904" y="-329.999985" fill-opacity="1"/></g></g></g></g></g><g clip-path="url(#cb76652503)"><g transform="matrix(1, 0, 0, 1, 283, 239)"><g clip-path="url(#4ced139be1)"><g clip-path="url(#fd9964a5d1)"><path fill="#f2b39c" d="M 340.273438 266.703125 C 274.734375 397.355469 285.867188 535.085938 296.460938 673.378906 C 397.082031 588.960938 502.714844 581.488281 615.257812 641.703125 C 639.050781 611.332031 667.117188 588.011719 704.460938 577.890625 C 795.859375 553.113281 899.941406 617.039062 926.523438 714.476562 C 940.703125 766.457031 932.925781 816.792969 911.644531 864.976562 C 897.585938 896.800781 870.246094 916.355469 839.734375 931.296875 C 788.484375 956.386719 733.457031 965.359375 677.210938 965.773438 C 561.695312 966.621094 446.148438 967.324219 330.652344 965.53125 C 226.960938 963.921875 129.457031 939.953125 44.902344 875.554688 C 29.582031 863.886719 24.28125 852.148438 28.089844 832.511719 C 33.929688 802.378906 33.289062 773.308594 18.367188 743.210938 C -9.597656 686.8125 -1.085938 626.894531 13.582031 568.289062 C 37.761719 471.695312 85.339844 385.820312 134.917969 300.378906 C 163.089844 251.824219 183.3125 198.699219 207.839844 147.980469 C 237.179688 87.316406 285.605469 43.089844 340.847656 8.078125 C 356.96875 -2.136719 388.386719 -0.566406 406.964844 8.09375 C 440.582031 23.769531 470.863281 47.480469 500.5625 70.398438 C 525.394531 89.558594 529.824219 113.789062 517.511719 142.835938 C 512.945312 153.601562 512.621094 161.5625 519.40625 172.019531 C 531.238281 190.25 528.59375 212.59375 509.972656 223.757812 C 458.667969 254.523438 405.527344 281.757812 340.273438 266.703125 Z M 340.273438 266.703125 " fill-opacity="1" fill-rule="nonzero"/></g></g></g></g></svg>