<svg xmlns="http://www.w3.org/2000/svg" xmlns:xlink="http://www.w3.org/1999/xlink" width="1080" zoomAndPan="magnify" viewBox="0 0 810 1439.999935" height="1920" preserveAspectRatio="xMidYMid meet" version="1.0"><defs><filter x="0%" y="0%" width="100%" height="100%" id="39608e7200"><feColorMatrix values="0 0 0 0 1 0 0 0 0 1 0 0 0 0 1 0 0 0 1 0" color-interpolation-filters="sRGB"/></filter><mask id="6414dfe07d"><g filter="url(#39608e7200)"><rect x="-81" width="972" fill="#000000" y="-143.999994" height="1727.999922" fill-opacity="0.94"/></g></mask><clipPath id="e76141ade1"><path d="M 0 587 L 146 587 L 146 819.964844 L 0 819.964844 Z M 0 587 " clip-rule="nonzero"/></clipPath><clipPath id="b2bd5c3211"><path d="M 691 184 L 810 184 L 810 819.964844 L 691 819.964844 Z M 691 184 " clip-rule="nonzero"/></clipPath><clipPath id="c2e78becae"><path d="M 5 1 L 810 1 L 810 702 L 5 702 Z M 5 1 " clip-rule="nonzero"/></clipPath><clipPath id="e869eab903"><rect x="0" width="810" y="0" height="820"/></clipPath></defs><g mask="url(#6414dfe07d)"><g transform="matrix(1, 0, 0, 1, 0, 620)"><g clip-path="url(#e869eab903)"><g clip-path="url(#e76141ade1)"><path fill="#ffffff" d="M -0.0390625 819.679688 L 145.722656 819.679688 L 145.722656 587.53125 L -0.0390625 728.675781 Z M -0.0390625 819.679688 " fill-opacity="1" fill-rule="nonzero"/></g><g clip-path="url(#b2bd5c3211)"><path fill="#ffffff" d="M 781.375 184.332031 L 691.925781 276.976562 L 691.925781 819.679688 L 837.671875 819.679688 L 837.671875 238.789062 L 837.535156 239.363281 Z M 781.375 184.332031 " fill-opacity="1" fill-rule="nonzero"/></g><path fill="#ffffff" d="M 518.785156 818.195312 L 664.53125 818.195312 L 664.53125 305.355469 L 518.785156 456.308594 Z M 518.785156 818.195312 " fill-opacity="1" fill-rule="nonzero"/><path fill="#ffffff" d="M 345.644531 550.3125 L 345.644531 818.195312 L 491.402344 818.195312 L 491.402344 484.671875 L 392.667969 586.929688 Z M 345.644531 550.3125 " fill-opacity="1" fill-rule="nonzero"/><path fill="#ffffff" d="M 172.515625 560.09375 L 172.515625 818.195312 L 318.261719 818.195312 L 318.261719 528.996094 L 255.277344 479.949219 Z M 172.515625 560.09375 " fill-opacity="1" fill-rule="nonzero"/><g clip-path="url(#c2e78becae)"><path fill="#ffffff" d="M 884.15625 1.152344 L 834.140625 210.070312 L 833.066406 214.558594 L 780.917969 163.472656 L 516.113281 437.742188 L 488.722656 466.085938 L 391.664062 566.617188 L 254.421875 459.765625 L 5.023438 701.3125 L 5.023438 596.535156 L 36.890625 565.667969 L 249.199219 360.089844 L 384.691406 465.585938 L 727.203125 110.824219 L 677.957031 62.601562 Z M 884.15625 1.152344 " fill-opacity="1" fill-rule="nonzero"/></g></g></g></g></svg>