<svg xmlns="http://www.w3.org/2000/svg" xmlns:xlink="http://www.w3.org/1999/xlink" width="2000" zoomAndPan="magnify" viewBox="0 0 1500 1499.999933" height="2000" preserveAspectRatio="xMidYMid meet" version="1.0"><defs><clipPath id="74ae2721a5"><path d="M 0 0 L 1500 0 L 1500 1500 L 0 1500 Z M 0 0 " clip-rule="nonzero"/></clipPath><clipPath id="876d963ae0"><path d="M 750 0 C 335.785156 0 0 335.785156 0 750 C 0 1164.214844 335.785156 1500 750 1500 C 1164.214844 1500 1500 1164.214844 1500 750 C 1500 335.785156 1164.214844 0 750 0 Z M 750 0 " clip-rule="nonzero"/></clipPath><clipPath id="be8fb640f1"><path d="M 0 0 L 1500 0 L 1500 1500 L 0 1500 Z M 0 0 " clip-rule="nonzero"/></clipPath><clipPath id="51dce955d3"><path d="M 750 0 C 335.785156 0 0 335.785156 0 750 C 0 1164.214844 335.785156 1500 750 1500 C 1164.214844 1500 1500 1164.214844 1500 750 C 1500 335.785156 1164.214844 0 750 0 Z M 750 0 " clip-rule="nonzero"/></clipPath><clipPath id="d0a1930a1d"><rect x="0" width="1500" y="0" height="1500"/></clipPath><clipPath id="975327ea15"><path d="M 127.496094 447 L 508 447 L 508 850 L 127.496094 850 Z M 127.496094 447 " clip-rule="nonzero"/></clipPath><clipPath id="779e02e642"><path d="M 984 344.804688 L 1366.5625 344.804688 L 1366.5625 737 L 984 737 Z M 984 344.804688 " clip-rule="nonzero"/></clipPath><clipPath id="c8ae4a5d15"><rect x="0" width="1500" y="0" height="1500"/></clipPath></defs><rect x="-150" width="1800" fill="#ffffff" y="-149.999993" height="1799.99992" fill-opacity="1"/><rect x="-150" width="1800" fill="#ffffff" y="-149.999993" height="1799.99992" fill-opacity="1"/><g transform="matrix(1, 0, 0, 1, 0, 0.000000000000112861)"><g clip-path="url(#c8ae4a5d15)"><g clip-path="url(#74ae2721a5)"><g clip-path="url(#876d963ae0)"><g transform="matrix(1, 0, 0, 1, 0, 0.000000000000112861)"><g clip-path="url(#d0a1930a1d)"><g clip-path="url(#be8fb640f1)"><g clip-path="url(#51dce955d3)"><rect x="-546" width="2592" fill="#ffffff" y="-545.999976" height="2591.999885" fill-opacity="1"/></g></g></g></g></g></g><path fill="#cb7749" d="M 548.058594 980.328125 C 548.058594 980.328125 475.558594 998.328125 451.195312 993 C 426.882812 987.667969 410.765625 933.445312 464.851562 912.34375 L 548.058594 980.328125 " fill-opacity="1" fill-rule="nonzero"/><path fill="#f9b57c" d="M 596.1875 628.230469 C 596.1875 628.230469 705.179688 646.503906 735.449219 651.5625 C 765.714844 656.675781 1096.84375 888.796875 1096.84375 888.796875 C 1096.84375 888.796875 1126.070312 912.289062 1100.175781 952.863281 C 1093.019531 964.121094 1071.273438 984.734375 1046.582031 983.644531 L 993.804688 964.5 C 993.804688 964.5 1018.609375 989.300781 1009.320312 1019.757812 C 1004.511719 1035.53125 974.902344 1075.9375 928.027344 1058.808594 C 928.027344 1058.808594 918.304688 1116.074219 853.78125 1092.851562 C 853.78125 1092.851562 825.644531 1147.019531 763.746094 1127.332031 C 763.746094 1127.332031 382.628906 897.0625 344.222656 829.730469 L 483.210938 609.304688 L 596.1875 628.230469 " fill-opacity="1" fill-rule="nonzero"/><path fill="#f2f1f9" d="M 554.503906 598.15625 C 554.503906 598.15625 498.507812 800.851562 357.117188 876.285156 L 274.347656 813.363281 L 456.546875 545.945312 L 554.503906 598.15625 " fill-opacity="1" fill-rule="nonzero"/><g clip-path="url(#975327ea15)"><path fill="#2c5189" d="M 507.027344 554.429688 C 507.027344 554.429688 430.488281 761.3125 293.25 849.039062 L 127.578125 738.308594 L 336.300781 447.289062 L 507.027344 554.429688 " fill-opacity="1" fill-rule="nonzero"/></g><path fill="#cb7749" d="M 619.953125 1025.46875 C 612.742188 1044.015625 591.875 1053.207031 573.296875 1046.082031 C 554.667969 1038.957031 545.433594 1018.125 552.59375 999.582031 L 581.273438 925.613281 C 588.429688 907.070312 609.355469 897.878906 627.929688 905.003906 C 646.558594 912.179688 655.792969 932.957031 648.636719 951.503906 L 619.953125 1025.46875 " fill-opacity="1" fill-rule="nonzero"/><path fill="#cb7749" d="M 681.035156 1064.246094 C 669.617188 1080.507812 647.105469 1084.476562 630.773438 1073.109375 C 614.382812 1061.742188 610.394531 1039.335938 621.8125 1023.074219 L 657.269531 972.007812 C 668.6875 955.746094 691.195312 951.773438 707.53125 963.140625 C 723.867188 974.507812 727.855469 996.914062 716.4375 1013.175781 L 681.035156 1064.246094 " fill-opacity="1" fill-rule="nonzero"/><path fill="#cb7749" d="M 736.046875 1107.320312 C 724.628906 1123.582031 702.121094 1127.550781 685.785156 1116.183594 C 669.453125 1104.816406 665.464844 1082.410156 676.882812 1066.148438 L 712.285156 1015.132812 C 723.703125 998.820312 746.210938 994.847656 762.546875 1006.214844 C 778.878906 1017.582031 782.867188 1039.988281 771.449219 1056.25 L 736.046875 1107.320312 " fill-opacity="1" fill-rule="nonzero"/><path fill="#cb7749" d="M 812.589844 556.550781 C 812.589844 556.550781 801.71875 557.257812 788.003906 571.289062 C 774.238281 585.320312 699.609375 668.3125 680.542969 676.417969 C 680.542969 676.417969 658.90625 692.40625 673.003906 706.113281 C 687.097656 719.761719 746.921875 750.871094 799.148438 686.261719 L 1045.816406 853.28125 C 1045.816406 853.28125 1072.421875 843.328125 1093.128906 810.316406 C 1093.128906 810.316406 1141.695312 742.441406 1163.167969 691.375 L 979.492188 528.648438 C 979.492188 528.648438 899.890625 540.453125 812.589844 556.550781 " fill-opacity="1" fill-rule="nonzero"/><path fill="#aba6da" d="M 943.980469 525.984375 C 943.980469 525.984375 1029.152344 718.402344 1180.15625 772.464844 L 1252.710938 698.117188 L 1033.195312 460.121094 L 943.980469 525.984375 " fill-opacity="1" fill-rule="nonzero"/><g clip-path="url(#779e02e642)"><path fill="#1b3a60" d="M 984.570312 475.839844 C 984.570312 475.839844 1090.613281 669.402344 1239.324219 736.1875 L 1366.453125 618.058594 L 1137.707031 344.988281 L 984.570312 475.839844 " fill-opacity="1" fill-rule="nonzero"/></g></g></g></svg>